<svg id="Ebene_1" data-name="Ebene 1" xmlns="http://www.w3.org/2000/svg" viewBox="0 0 104.88 104.88"><defs><style>.cls-1{fill:#fff5cb;}.cls-2{fill:#014f9a;}</style></defs><circle class="cls-1" cx="52.39" cy="52.55" r="49.61"/><path class="cls-2" d="M71.72,35.36l-12.83.17a4,4,0,0,0-3.59,5.1C57.13,46.05,58,48.55,58,48.55l-10.84,6.2-4.45-5.59s-3-3.64-6.72.26l-7.54,9.91,10,1.17,1.09-1.4,1.78,2.29L23.45,59.45S20.19,58.77,20,60.8c22.39,5.39,48.29.7,66.22-7.88-.14-3.37-2.1-8.23-2.1-8.23a4.33,4.33,0,0,0-.52-1c-1,6.25-6.05,7-6.05,7L78,52.14,73,52l-6.87-4.76L64.9,43.54h2.4S66.43,38.53,71.72,35.36Z"/><circle class="cls-2" cx="75.53" cy="42.67" r="7.57"/><path class="cls-2" d="M53.33,75.76C23.5,80,3.16,56.23,2.6,55.89c48.81,20.48,90.68-5,98.87-10.56C101.55,45.27,83.16,71.5,53.33,75.76Z"/></svg>